<svg width="54" height="48" viewBox="0 0 54 48" fill="none" xmlns="http://www.w3.org/2000/svg">
<g filter="url(#filter0_d_1_897)">
<g filter="url(#filter1_b_1_897)">
<rect x="4.17651" y="4" width="45.1765" height="40" rx="20" fill="#FFFEFE" fill-opacity="0.6"/>
</g>
</g>
<path d="M35.1453 9H19.2078C15.3245 9 12.1765 12.148 12.1765 16.0312V31.9688C12.1765 35.852 15.3245 39 19.2078 39H35.1453C39.0285 39 42.1765 35.852 42.1765 31.9688V16.0312C42.1765 12.148 39.0285 9 35.1453 9Z" fill="url(#paint0_radial_1_897)"/>
<path d="M35.1453 9H19.2078C15.3245 9 12.1765 12.148 12.1765 16.0312V31.9688C12.1765 35.852 15.3245 39 19.2078 39H35.1453C39.0285 39 42.1765 35.852 42.1765 31.9688V16.0312C42.1765 12.148 39.0285 9 35.1453 9Z" fill="url(#paint1_radial_1_897)"/>
<path d="M27.1776 12.2812C23.995 12.2812 23.5955 12.2952 22.3456 12.352C21.098 12.4092 20.2464 12.6067 19.5013 12.8965C18.7305 13.1958 18.0767 13.5962 17.4253 14.2478C16.7734 14.8992 16.373 15.553 16.0728 16.3235C15.7821 17.0688 15.5844 17.9208 15.5283 19.1678C15.4724 20.4178 15.4578 20.8174 15.4578 24.0001C15.4578 27.1828 15.4718 27.581 15.5285 28.8309C15.586 30.0785 15.7834 30.9301 16.073 31.6752C16.3725 32.4461 16.773 33.0998 17.4245 33.7512C18.0757 34.4031 18.7295 34.8045 19.4998 35.1037C20.2455 35.3936 21.0972 35.591 22.3445 35.6482C23.5946 35.705 23.9937 35.719 27.1762 35.719C30.3591 35.719 30.7573 35.705 32.0072 35.6482C33.2548 35.591 34.1073 35.3936 34.853 35.1037C35.6235 34.8045 36.2764 34.4031 36.9275 33.7512C37.5794 33.0998 37.9797 32.4461 38.28 31.6755C38.5681 30.9301 38.7659 30.0783 38.8245 28.8312C38.8806 27.5812 38.8953 27.1828 38.8953 24.0001C38.8953 20.8174 38.8806 20.418 38.8245 19.168C38.7659 17.9204 38.5681 17.0689 38.28 16.3239C37.9797 15.553 37.5794 14.8992 36.9275 14.2478C36.2757 13.596 35.6237 13.1955 34.8523 12.8966C34.1052 12.6067 33.2532 12.4091 32.0056 12.352C30.7555 12.2952 30.3576 12.2812 27.1739 12.2812H27.1776ZM26.1263 14.3931C26.4383 14.3926 26.7865 14.3931 27.1776 14.3931C30.3066 14.3931 30.6774 14.4043 31.913 14.4605C33.0556 14.5127 33.6757 14.7036 34.0888 14.8641C34.6357 15.0764 35.0256 15.3304 35.4355 15.7406C35.8457 16.1508 36.0995 16.5414 36.3125 17.0883C36.4729 17.5008 36.664 18.1209 36.716 19.2635C36.7722 20.4989 36.7844 20.8699 36.7844 23.9974C36.7844 27.1249 36.7722 27.4961 36.716 28.7313C36.6638 29.8739 36.4729 30.4941 36.3125 30.9067C36.1001 31.4536 35.8457 31.843 35.4355 32.2529C35.0254 32.6631 34.636 32.9169 34.0888 33.1294C33.6762 33.2905 33.0556 33.4809 31.913 33.5332C30.6776 33.5893 30.3066 33.6015 27.1776 33.6015C24.0484 33.6015 23.6775 33.5893 22.4423 33.5332C21.2997 33.4805 20.6795 33.2896 20.2661 33.1291C19.7193 32.9167 19.3286 32.6629 18.9184 32.2527C18.5083 31.8425 18.2544 31.4529 18.0415 30.9057C17.8811 30.4931 17.69 29.873 17.6379 28.7304C17.5818 27.495 17.5705 27.124 17.5705 23.9945C17.5705 20.8651 17.5818 20.496 17.6379 19.2606C17.6902 18.118 17.8811 17.4979 18.0415 17.0848C18.254 16.5379 18.5083 16.1473 18.9185 15.7371C19.3287 15.327 19.7193 15.073 20.2662 14.8602C20.6793 14.6991 21.2997 14.5086 22.4423 14.4561C23.5233 14.4073 23.9423 14.3926 26.1263 14.3902V14.3931ZM33.433 16.3389C32.6567 16.3389 32.0268 16.9682 32.0268 17.7446C32.0268 18.521 32.6567 19.1509 33.433 19.1509C34.2094 19.1509 34.8393 18.521 34.8393 17.7446C34.8393 16.9683 34.2094 16.3384 33.433 16.3384V16.3389ZM27.1776 17.982C23.8541 17.982 21.1595 20.6766 21.1595 24.0001C21.1595 27.3237 23.8541 30.017 27.1776 30.017C30.5011 30.017 33.1948 27.3237 33.1948 24.0001C33.1948 20.6767 30.5009 17.982 27.1773 17.982H27.1776ZM27.1776 20.0938C29.3349 20.0938 31.0839 21.8426 31.0839 24.0001C31.0839 26.1574 29.3349 27.9064 27.1776 27.9064C25.0201 27.9064 23.2714 26.1574 23.2714 24.0001C23.2714 21.8426 25.0201 20.0938 27.1776 20.0938Z" fill="white"/>
<defs>
<filter id="filter0_d_1_897" x="0.176514" y="0" width="53.1765" height="48" filterUnits="userSpaceOnUse" color-interpolation-filters="sRGB">
<feFlood flood-opacity="0" result="BackgroundImageFix"/>
<feColorMatrix in="SourceAlpha" type="matrix" values="0 0 0 0 0 0 0 0 0 0 0 0 0 0 0 0 0 0 127 0" result="hardAlpha"/>
<feOffset/>
<feGaussianBlur stdDeviation="2"/>
<feComposite in2="hardAlpha" operator="out"/>
<feColorMatrix type="matrix" values="0 0 0 0 0 0 0 0 0 0 0 0 0 0 0 0 0 0 0.25 0"/>
<feBlend mode="normal" in2="BackgroundImageFix" result="effect1_dropShadow_1_897"/>
<feBlend mode="normal" in="SourceGraphic" in2="effect1_dropShadow_1_897" result="shape"/>
</filter>
<filter id="filter1_b_1_897" x="-15.8235" y="-16" width="85.1765" height="80" filterUnits="userSpaceOnUse" color-interpolation-filters="sRGB">
<feFlood flood-opacity="0" result="BackgroundImageFix"/>
<feGaussianBlur in="BackgroundImageFix" stdDeviation="10"/>
<feComposite in2="SourceAlpha" operator="in" result="effect1_backgroundBlur_1_897"/>
<feBlend mode="normal" in="SourceGraphic" in2="effect1_backgroundBlur_1_897" result="shape"/>
</filter>
<radialGradient id="paint0_radial_1_897" cx="0" cy="0" r="1" gradientUnits="userSpaceOnUse" gradientTransform="translate(20.1453 41.3106) rotate(-90) scale(29.7322 27.6533)">
<stop stop-color="#FFDD55"/>
<stop offset="0.1" stop-color="#FFDD55"/>
<stop offset="0.5" stop-color="#FF543E"/>
<stop offset="1" stop-color="#C837AB"/>
</radialGradient>
<radialGradient id="paint1_radial_1_897" cx="0" cy="0" r="1" gradientUnits="userSpaceOnUse" gradientTransform="translate(7.1514 11.1611) rotate(78.681) scale(13.2905 54.7837)">
<stop stop-color="#3771C8"/>
<stop offset="0.128" stop-color="#3771C8"/>
<stop offset="1" stop-color="#6600FF" stop-opacity="0"/>
</radialGradient>
</defs>
</svg>
