<svg width="54" height="48" viewBox="0 0 54 48" fill="none" xmlns="http://www.w3.org/2000/svg">
<g filter="url(#filter0_d_1_891)">
<g filter="url(#filter1_b_1_891)">
<rect x="4.35303" y="4" width="45.1765" height="40" rx="20" fill="#FFFEFE" fill-opacity="0.6"/>
</g>
</g>
<path d="M27.353 9C23.3757 9 19.5577 10.5813 16.7476 13.3934C13.9345 16.2065 12.3538 20.0217 12.353 24C12.353 27.9766 13.9351 31.7946 16.7476 34.6066C19.5577 37.4187 23.3757 39 27.353 39C31.3304 39 35.1483 37.4187 37.9585 34.6066C40.771 31.7946 42.353 27.9766 42.353 24C42.353 20.0234 40.771 16.2054 37.9585 13.3934C35.1483 10.5813 31.3304 9 27.353 9Z" fill="url(#paint0_linear_1_891)"/>
<path d="M18.5117 23.0149C22.8852 21.1099 25.8008 19.8539 27.2586 19.2471C31.4258 17.5143 32.2906 17.2134 32.8555 17.2032C32.9797 17.2012 33.2563 17.2319 33.4367 17.3778C33.5867 17.5009 33.6289 17.6673 33.65 17.7841C33.6688 17.9008 33.6945 18.1668 33.6734 18.3745C33.4484 20.7464 32.4711 26.5022 31.9742 29.1588C31.7656 30.2829 31.3508 30.6597 30.95 30.6965C30.0781 30.7767 29.4172 30.1209 28.5734 29.568C27.2539 28.7025 26.5086 28.1639 25.2266 27.3194C23.7453 26.3435 24.7063 25.807 25.55 24.9304C25.7703 24.701 29.6094 21.21 29.682 20.8933C29.6914 20.8537 29.7008 20.7061 29.6117 20.6283C29.525 20.5502 29.3961 20.5769 29.3024 20.598C29.1688 20.628 27.0617 22.0221 22.9742 24.78C22.3766 25.1911 21.8352 25.3915 21.3477 25.3809C20.8133 25.3694 19.782 25.0781 19.0156 24.8292C18.0781 24.5238 17.3305 24.3623 17.3961 23.8436C17.4289 23.5736 17.8016 23.2973 18.5117 23.0149Z" fill="white"/>
<defs>
<filter id="filter0_d_1_891" x="0.353027" y="0" width="53.1765" height="48" filterUnits="userSpaceOnUse" color-interpolation-filters="sRGB">
<feFlood flood-opacity="0" result="BackgroundImageFix"/>
<feColorMatrix in="SourceAlpha" type="matrix" values="0 0 0 0 0 0 0 0 0 0 0 0 0 0 0 0 0 0 127 0" result="hardAlpha"/>
<feOffset/>
<feGaussianBlur stdDeviation="2"/>
<feComposite in2="hardAlpha" operator="out"/>
<feColorMatrix type="matrix" values="0 0 0 0 0 0 0 0 0 0 0 0 0 0 0 0 0 0 0.25 0"/>
<feBlend mode="normal" in2="BackgroundImageFix" result="effect1_dropShadow_1_891"/>
<feBlend mode="normal" in="SourceGraphic" in2="effect1_dropShadow_1_891" result="shape"/>
</filter>
<filter id="filter1_b_1_891" x="-15.647" y="-16" width="85.1765" height="80" filterUnits="userSpaceOnUse" color-interpolation-filters="sRGB">
<feFlood flood-opacity="0" result="BackgroundImageFix"/>
<feGaussianBlur in="BackgroundImageFix" stdDeviation="10"/>
<feComposite in2="SourceAlpha" operator="in" result="effect1_backgroundBlur_1_891"/>
<feBlend mode="normal" in="SourceGraphic" in2="effect1_backgroundBlur_1_891" result="shape"/>
</filter>
<linearGradient id="paint0_linear_1_891" x1="1512.35" y1="9" x2="1512.35" y2="3009" gradientUnits="userSpaceOnUse">
<stop stop-color="#2AABEE"/>
<stop offset="1" stop-color="#229ED9"/>
</linearGradient>
</defs>
</svg>
