<svg width="36" height="36" viewBox="0 0 36 36" fill="none" xmlns="http://www.w3.org/2000/svg">
<g clip-path="url(#clip0_1_864)">
<path d="M0 9V13H36V9C36 7.93913 35.5786 6.92172 34.8284 6.17157C34.0783 5.42143 33.0609 5 32 5H4C2.93913 5 1.92172 5.42143 1.17157 6.17157C0.421427 6.92172 0 7.93913 0 9Z" fill="#0099B5"/>
<path d="M36 27V23H0V27C0 28.0609 0.421427 29.0783 1.17157 29.8284C1.92172 30.5786 2.93913 31 4 31H32C33.0609 31 34.0783 30.5786 34.8284 29.8284C35.5786 29.0783 36 28.0609 36 27Z" fill="#1EB53A"/>
<path d="M0 13H36V14.5H0V13ZM0 21.5H36V23H0V21.5Z" fill="#CE1126"/>
<path d="M0 18V21.5H36V14.5H0V18Z" fill="#EEEEEE"/>
<path d="M4.19997 9.16004C4.20006 8.42278 4.46122 7.70937 4.93715 7.14631C5.41308 6.58325 6.07303 6.20692 6.79997 6.08404C6.35246 6.00808 5.89376 6.03067 5.45588 6.15026C5.01801 6.26984 4.6115 6.48352 4.26471 6.7764C3.91793 7.06928 3.63923 7.4343 3.44805 7.84599C3.25688 8.25768 3.15784 8.70613 3.15784 9.16004C3.15784 9.61395 3.25688 10.0624 3.44805 10.4741C3.63923 10.8858 3.91793 11.2508 4.26471 11.5437C4.6115 11.8366 5.01801 12.0502 5.45588 12.1698C5.89376 12.2894 6.35246 12.312 6.79997 12.236C6.07303 12.1132 5.41308 11.7368 4.93715 11.1738C4.46122 10.6107 4.20006 9.8973 4.19997 9.16004ZM8.88297 11.463L8.74297 11.032L8.60297 11.463H8.14897L8.51597 11.73L8.37597 12.161L8.74297 11.894L9.10897 12.161L8.96897 11.73L9.33597 11.463H8.88297ZM11.585 11.463L11.445 11.032L11.305 11.463H10.852L11.219 11.73L11.079 12.161L11.445 11.894L11.812 12.161L11.672 11.73L12.039 11.463H11.585ZM11.445 8.53604L11.305 8.96704H10.852L11.219 9.23404L11.079 9.66504L11.445 9.39804L11.812 9.66504L11.672 9.23404L12.039 8.96704H11.585L11.445 8.53604ZM14.288 11.463L14.148 11.032L14.008 11.463H13.555L13.921 11.73L13.781 12.161L14.148 11.894L14.515 12.161L14.375 11.73L14.741 11.463H14.288ZM14.148 8.53604L14.008 8.96704H13.555L13.921 9.23404L13.781 9.66504L14.148 9.39804L14.515 9.66504L14.375 9.23404L14.741 8.96704H14.288L14.148 8.53604ZM14.148 6.04004L14.008 6.47104H13.555L13.921 6.73804L13.781 7.16904L14.148 6.90204L14.515 7.16904L14.375 6.73804L14.741 6.47104H14.288L14.148 6.04004ZM16.991 11.463L16.851 11.032L16.711 11.463H16.257L16.624 11.73L16.484 12.161L16.851 11.894L17.217 12.161L17.077 11.73L17.444 11.463H16.991ZM16.851 8.53604L16.711 8.96704H16.257L16.624 9.23404L16.484 9.66504L16.851 9.39804L17.217 9.66504L17.077 9.23404L17.444 8.96704H16.991L16.851 8.53604ZM16.851 6.04004L16.711 6.47104H16.257L16.624 6.73804L16.484 7.16904L16.851 6.90204L17.217 7.16904L17.077 6.73804L17.444 6.47104H16.991L16.851 6.04004ZM19.693 11.463L19.553 11.032L19.413 11.463H18.96L19.327 11.73L19.187 12.161L19.553 11.894L19.92 12.161L19.78 11.73L20.147 11.463H19.693ZM19.553 8.53604L19.413 8.96704H18.96L19.327 9.23404L19.187 9.66504L19.553 9.39804L19.92 9.66504L19.78 9.23404L20.147 8.96704H19.693L19.553 8.53604ZM19.553 6.04004L19.413 6.47104H18.96L19.327 6.73804L19.187 7.16904L19.553 6.90204L19.92 7.16904L19.78 6.73804L20.147 6.47104H19.693L19.553 6.04004Z" fill="white"/>
</g>
<defs>
<clipPath id="clip0_1_864">
<rect width="36" height="36" fill="white"/>
</clipPath>
</defs>
</svg>
